<svg xmlns="http://www.w3.org/2000/svg" xmlns:xlink="http://www.w3.org/1999/xlink" viewBox="0 0 125.33 111.3"><defs><linearGradient id="New_Gradient_Swatch_2" x1="17.82" y1="28.8" x2="45.28" y2="28.8" gradientUnits="userSpaceOnUse"><stop offset="0" stop-color="#0076bd"/><stop offset="0.16" stop-color="#077abf"/><stop offset="0.4" stop-color="#1983c3"/><stop offset="0.67" stop-color="#3794cb"/><stop offset="0.96" stop-color="#60aad6"/><stop offset="1" stop-color="#66add7"/></linearGradient><linearGradient id="New_Gradient_Swatch_2-2" x1="52.63" y1="14" x2="80.09" y2="14" xlink:href="#New_Gradient_Swatch_2"/><linearGradient id="New_Gradient_Swatch_2-3" x1="47.43" y1="45.72" x2="74.89" y2="45.72" xlink:href="#New_Gradient_Swatch_2"/><linearGradient id="New_Gradient_Swatch_2-4" x1="82.73" y1="31.4" x2="110.19" y2="31.4" xlink:href="#New_Gradient_Swatch_2"/></defs><title>darkbluebrick</title><g id="Layer_2" data-name="Layer 2"><g id="Layer_1-2" data-name="Layer 1"><polygon points="0 28.99 0.18 76.07 59.41 111.3 59.52 62.63 0 28.99" style="fill:#0076bd"/><polygon points="59.41 62.6 59.41 111.31 125.33 79.44 125.33 34.1 59.41 62.6" style="fill:#268ac7"/><polygon points="0 28.99 61.18 3.35 125.33 34.1 59.41 62.6 0 28.99" style="fill:#4c9fd1"/><path d="M45.28,29.75s-2.52,6.49-13.8,6.49c-10.42,0-13.53-6.3-13.53-6.3,0-1.41-.25-6.27-.05-8.53,0,0,3,6,13.5,6,9.36,0,13.7-6,13.7-6C45.22,26,45.28,28.63,45.28,29.75Z" style="fill:url(#New_Gradient_Swatch_2)"/><ellipse cx="31.48" cy="21.1" rx="13.53" ry="6.3" style="fill:#4c9fd1"/><path d="M80.09,14.95s-2.52,6.49-13.8,6.49c-10.42,0-13.53-6.3-13.53-6.3,0-1.41-.25-6.27-.05-8.53,0,0,3,6,13.5,6,9.36,0,13.7-6,13.7-6C80,11.2,80.09,13.82,80.09,14.95Z" style="fill:url(#New_Gradient_Swatch_2-2)"/><ellipse cx="66.29" cy="6.3" rx="13.53" ry="6.3" style="fill:#4c9fd1"/><path d="M74.89,46.67s-2.52,6.49-13.8,6.49c-10.42,0-13.53-6.3-13.53-6.3,0-1.41-.25-6.27-.05-8.53,0,0,3,6,13.5,6,9.36,0,13.7-6,13.7-6C74.83,42.92,74.89,45.55,74.89,46.67Z" style="fill:url(#New_Gradient_Swatch_2-3)"/><ellipse cx="61.09" cy="38.02" rx="13.53" ry="6.3" style="fill:#4c9fd1"/><path d="M110.19,32.35s-2.52,6.49-13.8,6.49c-10.42,0-13.53-6.3-13.53-6.3,0-1.41-.25-6.27-.05-8.53,0,0,3,6,13.5,6,9.36,0,13.7-6,13.7-6C110.13,28.61,110.19,31.23,110.19,32.35Z" style="fill:url(#New_Gradient_Swatch_2-4)"/><ellipse cx="96.39" cy="23.7" rx="13.53" ry="6.3" style="fill:#4c9fd1"/></g></g></svg>