<svg xmlns="http://www.w3.org/2000/svg" xmlns:xlink="http://www.w3.org/1999/xlink" viewBox="0 0 125.33 111.3"><defs><clipPath id="clip-path"><path d="M31.4,27.39c-10.46,0-13.5-6-13.5-6-.19,2.26.05,7.11.05,8.53,0,0,3.11,6.29,13.53,6.29,11.28,0,13.8-6.49,13.8-6.49,0-1.12-.06-3.75-.19-8.4,0,0-4.33,6-13.7,6" style="fill:none"/></clipPath><linearGradient id="linear-gradient" y1="111.3" x2="1" y2="111.3" gradientTransform="matrix(27.46, 0, 0, -27.46, 17.84, 3085.11)" gradientUnits="userSpaceOnUse"><stop offset="0" stop-color="#1c8843"/><stop offset="0.16" stop-color="#238c43"/><stop offset="0.4" stop-color="#359542"/><stop offset="0.68" stop-color="#54a542"/><stop offset="0.98" stop-color="#7fbc41"/><stop offset="1" stop-color="#81bd41"/></linearGradient><clipPath id="clip-path-2"><path d="M66.21,12.59c-10.46,0-13.5-6-13.5-6-.19,2.26.05,7.11.05,8.53,0,0,3.11,6.3,13.53,6.3,11.28,0,13.8-6.49,13.8-6.49,0-1.12-.06-3.75-.19-8.4,0,0-4.33,6-13.7,6" style="fill:none"/></clipPath><linearGradient id="linear-gradient-2" x1="0" y1="111.3" x2="1" y2="111.3" gradientTransform="matrix(27.46, 0, 0, -27.46, 52.65, 3070.31)" xlink:href="#linear-gradient"/><clipPath id="clip-path-3"><path d="M61,44.31c-10.46,0-13.5-6-13.5-6-.19,2.26.05,7.11.05,8.53,0,0,3.11,6.3,13.53,6.3,11.28,0,13.8-6.49,13.8-6.49,0-1.12-.06-3.75-.19-8.4,0,0-4.33,6-13.7,6" style="fill:none"/></clipPath><linearGradient id="linear-gradient-3" x1="0" y1="111.3" x2="1" y2="111.3" gradientTransform="matrix(27.46, 0, 0, -27.46, 47.44, 3102.03)" xlink:href="#linear-gradient"/><clipPath id="clip-path-4"><path d="M96.3,30c-10.46,0-13.5-6-13.5-6-.19,2.26.05,7.11.05,8.53,0,0,3.11,6.29,13.54,6.29,11.28,0,13.8-6.49,13.8-6.49,0-1.12-.06-3.75-.19-8.4,0,0-4.33,6-13.7,6" style="fill:none"/></clipPath><linearGradient id="linear-gradient-4" x1="0" y1="111.3" x2="1" y2="111.3" gradientTransform="matrix(27.46, 0, 0, -27.46, 82.74, 3087.71)" xlink:href="#linear-gradient"/></defs><title>greenbrick</title><g id="Layer_2" data-name="Layer 2"><g id="Layer_1-2" data-name="Layer 1"><polygon points="0.18 76.07 59.41 111.3 59.52 62.63 0 28.99 0.18 76.07" style="fill:#1d8843"/><polygon points="59.41 62.6 59.41 111.31 125.33 79.44 125.33 34.1 59.41 62.6" style="fill:#74ac42"/><polygon points="0 28.99 59.41 62.6 125.33 34.1 61.18 3.35 0 28.99" style="fill:#81bd41"/><g style="clip-path:url(#clip-path)"><rect x="17.7" y="21.35" width="27.58" height="14.89" style="fill:url(#linear-gradient)"/></g><path d="M45,21.1c0,3.48-6.06,6.3-13.53,6.3s-13.53-2.82-13.53-6.3S24,14.8,31.48,14.8,45,17.62,45,21.1" style="fill:#81bd41"/><g style="clip-path:url(#clip-path-2)"><rect x="52.51" y="6.55" width="27.58" height="14.89" style="fill:url(#linear-gradient-2)"/></g><path d="M79.83,6.29c0,3.48-6.06,6.3-13.54,6.3S52.76,9.77,52.76,6.29,58.82,0,66.29,0,79.83,2.82,79.83,6.29" style="fill:#81bd41"/><g style="clip-path:url(#clip-path-3)"><rect x="47.31" y="38.27" width="27.58" height="14.89" style="fill:url(#linear-gradient-3)"/></g><path d="M74.62,38c0,3.48-6.06,6.3-13.53,6.3S47.55,41.49,47.55,38s6.06-6.29,13.53-6.29S74.62,34.54,74.62,38" style="fill:#81bd41"/><g style="clip-path:url(#clip-path-4)"><rect x="82.61" y="23.96" width="27.58" height="14.89" style="fill:url(#linear-gradient-4)"/></g><path d="M109.92,23.7c0,3.48-6.06,6.3-13.53,6.3s-13.53-2.82-13.53-6.3,6.06-6.29,13.53-6.29,13.53,2.82,13.53,6.29" style="fill:#81bd41"/></g></g></svg>