<svg id="Layer_1" data-name="Layer 1" xmlns="http://www.w3.org/2000/svg" xmlns:xlink="http://www.w3.org/1999/xlink" viewBox="0 0 77.62 69.34"><defs><clipPath id="clip-path"><rect width="77.62" height="69.35" style="fill:none"/></clipPath><clipPath id="clip-path-2"><path d="M20,17.64c-6.28,0-8.1-3.58-8.1-3.58-.12,1.36,0,4.27,0,5.12,0,0,1.87,3.78,8.12,3.78,6.77,0,8.28-3.89,8.28-3.89,0-.67,0-2.25-.11-5A10.28,10.28,0,0,1,20,17.64" style="fill:none"/></clipPath><clipPath id="clip-path-4"><path d="M40.94,8.75c-6.28,0-8.1-3.58-8.1-3.58-.12,1.36,0,4.27,0,5.12,0,0,1.87,3.78,8.12,3.78,6.77,0,8.28-3.89,8.28-3.89,0-.67,0-2.25-.11-5a10.28,10.28,0,0,1-8.22,3.62" style="fill:none"/></clipPath><clipPath id="clip-path-6"><path d="M37.81,27.79c-6.28,0-8.1-3.58-8.1-3.58-.12,1.36,0,4.27,0,5.11,0,0,1.87,3.78,8.12,3.78,6.77,0,8.28-3.9,8.28-3.9,0-.67,0-2.25-.11-5a10.28,10.28,0,0,1-8.22,3.62" style="fill:none"/></clipPath><clipPath id="clip-path-8"><path d="M59,19.2c-6.28,0-8.1-3.58-8.1-3.58-.12,1.36,0,4.27,0,5.12,0,0,1.87,3.78,8.12,3.78,6.77,0,8.28-3.89,8.28-3.89,0-.67,0-2.25-.11-5A10.28,10.28,0,0,1,59,19.2" style="fill:none"/></clipPath></defs><title>redbrick</title><g style="clip-path:url(#clip-path)"><path d="M77,48.86l0-27.22v-.38l-.34-.16-8.8-4.21c0-.31,0-.69-.05-1s0-.43,0-.48C67.78,13,64,11,59.1,11a18.31,18.31,0,0,0-3,.24l-6.3-3c0-1.08-.06-3.19-.06-3.3C49.77,2.46,46,.6,41,.6s-8.78,1.86-8.79,4.33L21.34,9.49c-.29,0-.58,0-.87,0h-.31c-4.93,0-8.45,1.71-8.79,4.2C10.07,14.25,4.65,16.52,1,18L.6,18.2v.4L.78,46.8v.34l.29.17L36.54,68.5l.28.17.29-.14L76.68,49.4l.34-.16Z" style="fill:#fff"/><path d="M77,48.86l0-27.22v-.38l-.34-.16-8.8-4.21c0-.31,0-.69-.05-1s0-.43,0-.48C67.78,13,64,11,59.1,11a18.31,18.31,0,0,0-3,.24l-6.3-3c0-1.08-.06-3.19-.06-3.3C49.77,2.46,46,.6,41,.6s-8.78,1.86-8.79,4.33L21.34,9.49c-.29,0-.58,0-.87,0h-.31c-4.93,0-8.45,1.71-8.79,4.2C10.07,14.25,4.65,16.52,1,18L.6,18.2v.4L.78,46.8v.34l.29.17L36.54,68.5l.28.17.29-.14L76.68,49.4l.34-.16Z" style="fill:none;stroke:#fff;stroke-miterlimit:10;stroke-width:1.2000000476837158px"/></g><polygon points="1.21 18.6 1.32 46.84 36.86 67.98 36.92 38.78 1.21 18.6" style="fill:#821619"/><polygon points="36.86 38.76 36.86 67.98 76.41 48.86 76.41 21.66 36.86 38.76" style="fill:#a81f23"/><polygon points="1.21 18.59 37.92 3.21 76.41 21.66 36.86 38.76 1.21 18.59" style="fill:#d0202f"/><g style="clip-path:url(#clip-path-2)"><rect x="11.83" y="14.01" width="16.55" height="8.93" style="fill:#821619"/></g><g style="clip-path:url(#clip-path)"><path d="M28.22,13.86c0,2.09-3.64,3.78-8.12,3.78S12,15.94,12,13.86s3.64-3.78,8.12-3.78,8.12,1.69,8.12,3.78" style="fill:#d0202f"/></g><g style="clip-path:url(#clip-path-4)"><rect x="32.72" y="5.13" width="16.55" height="8.93" style="fill:#821619"/></g><g style="clip-path:url(#clip-path)"><path d="M49.11,5c0,2.09-3.64,3.78-8.12,3.78S32.87,7.06,32.87,5,36.5,1.2,41,1.2,49.11,2.89,49.11,5" style="fill:#d0202f"/></g><g style="clip-path:url(#clip-path-6)"><rect x="29.6" y="24.16" width="16.55" height="8.93" style="fill:#821619"/></g><g style="clip-path:url(#clip-path)"><path d="M46,24c0,2.09-3.64,3.78-8.12,3.78S29.74,26.1,29.74,24s3.64-3.78,8.12-3.78S46,21.92,46,24" style="fill:#d0202f"/></g><g style="clip-path:url(#clip-path-8)"><rect x="50.78" y="15.57" width="16.55" height="8.93" style="fill:#821619"/></g><g style="clip-path:url(#clip-path)"><path d="M67.17,15.42c0,2.09-3.64,3.78-8.12,3.78s-8.12-1.69-8.12-3.78,3.64-3.78,8.12-3.78,8.12,1.69,8.12,3.78" style="fill:#d0202f"/></g></svg>