<svg xmlns="http://www.w3.org/2000/svg" viewBox="0 0 125.33 111.31"><title>redbrick2</title><g id="Layer_2" data-name="Layer 2"><g id="Layer_1-2" data-name="Layer 1"><polygon points="0.18 76.07 59.41 111.3 59.52 62.63 0 28.99 0.18 76.07" style="fill:#811619"/><polygon points="59.41 62.6 59.41 111.31 125.33 79.44 125.33 34.1 59.41 62.6" style="fill:#a91f23"/><polygon points="0 28.99 59.41 62.6 125.33 34.1 61.18 3.35 0 28.99" style="fill:#d0202f"/><path d="M45.28,29.75s-2.52,6.49-13.8,6.49c-10.42,0-13.53-6.3-13.53-6.3,0-1.41-.24-6.26-.05-8.53,0,0,3,6,13.5,6,9.36,0,13.7-6,13.7-6,.13,4.65.19,7.27.19,8.4" style="fill:#811619"/><path d="M45,21.1c0,3.48-6.06,6.3-13.53,6.3s-13.53-2.82-13.53-6.3S24,14.8,31.48,14.8,45,17.62,45,21.1" style="fill:#d0202f"/><path d="M80.09,14.95s-2.52,6.49-13.8,6.49c-10.42,0-13.53-6.3-13.53-6.3,0-1.41-.25-6.26-.05-8.53,0,0,3,6,13.5,6,9.36,0,13.7-6,13.7-6,.13,4.65.19,7.27.19,8.4" style="fill:#811619"/><path d="M79.83,6.3c0,3.48-6.06,6.3-13.54,6.3S52.76,9.77,52.76,6.3,58.82,0,66.29,0,79.83,2.82,79.83,6.3" style="fill:#d0202f"/><path d="M74.89,46.67s-2.52,6.49-13.8,6.49c-10.42,0-13.53-6.29-13.53-6.29,0-1.41-.24-6.27-.05-8.53,0,0,3,6,13.5,6,9.36,0,13.7-6,13.7-6,.13,4.65.19,7.27.19,8.4" style="fill:#811619"/><path d="M74.62,38c0,3.48-6.06,6.3-13.53,6.3S47.55,41.49,47.55,38s6.06-6.29,13.53-6.29S74.62,34.54,74.62,38" style="fill:#d0202f"/><path d="M110.19,32.35s-2.52,6.49-13.8,6.49c-10.42,0-13.53-6.29-13.53-6.29,0-1.41-.25-6.27-.05-8.53,0,0,3,6,13.5,6,9.36,0,13.7-6,13.7-6,.13,4.65.19,7.27.19,8.4" style="fill:#811619"/><path d="M109.92,23.7c0,3.48-6.06,6.3-13.54,6.3s-13.53-2.82-13.53-6.3,6.06-6.29,13.53-6.29,13.54,2.82,13.54,6.29" style="fill:#d0202f"/></g></g></svg>