<?xml version="1.0" encoding="utf-8"?>
<!-- Generator: Adobe Illustrator 20.1.0, SVG Export Plug-In . SVG Version: 6.00 Build 0)  -->
<svg version="1.1" id="Layer_1" xmlns="http://www.w3.org/2000/svg" xmlns:xlink="http://www.w3.org/1999/xlink" x="0px" y="0px"
	 viewBox="0 0 310.5 118" style="enable-background:new 0 0 310.5 118;" xml:space="preserve">
<style type="text/css">
	.st0{fill:#F36C38;}
	.st1{fill:#6CAB43;}
	.st2{fill:#66B1E2;}
	.st3{fill:#FDBC46;}
	.st4{fill:#0076BD;}
	.st5{fill:#D0202F;}
	.st6{fill:#231F20;}
	.st7{fill:#FFFFFF;}
	.st8{clip-path:url(#SVGID_2_);}
	.st9{fill:none;stroke:#FFFFFF;stroke-width:0.455;}
	.st10{clip-path:url(#SVGID_4_);}
	.st11{fill:none;stroke:#FFFFFF;stroke-width:0.8239;stroke-miterlimit:10;}
	.st12{fill:#821619;}
	.st13{fill:#A81F23;}
	.st14{clip-path:url(#SVGID_6_);}
	.st15{clip-path:url(#SVGID_8_);}
	.st16{clip-path:url(#SVGID_10_);}
	.st17{clip-path:url(#SVGID_12_);}
</style>
<title>squares-2</title>
<g id="Layer_2">
	<g id="Layer_1-2">
		<rect x="236.8" class="st0" width="34.3" height="32.1"/>
		<rect x="202.7" class="st1" width="34" height="32.1"/>
		<rect x="168.8" class="st2" width="34" height="32.1"/>
		<rect x="134.8" class="st3" width="34" height="32.1"/>
		<rect x="100.8" class="st4" width="34" height="32.1"/>
		<rect x="66.8" class="st5" width="34" height="32.1"/>
		<rect x="32.8" class="st6" width="34" height="32.1"/>
		<rect class="st7" width="32.8" height="32.1"/>
		<g>
			<g>
				<g>
					<defs>
						<rect id="SVGID_1_" width="310.5" height="59.2"/>
					</defs>
					<clipPath id="SVGID_2_">
						<use xlink:href="#SVGID_1_"  style="overflow:visible;"/>
					</clipPath>
					<g class="st8">
						<line class="st9" x1="0" y1="32.1" x2="310.5" y2="32.1"/>
					</g>
				</g>
			</g>
		</g>
		<line class="st9" x1="271.1" y1="0" x2="271.1" y2="55.5"/>
		<g>
			<g>
				<g>
					<defs>
						<rect id="SVGID_3_" width="310.5" height="59.2"/>
					</defs>
					<clipPath id="SVGID_4_">
						<use xlink:href="#SVGID_3_"  style="overflow:visible;"/>
					</clipPath>
					<g class="st10">
						<path class="st7" d="M270.9,59.2c1.7,0,3.1-1.4,3.1-3.1s-1.4-3.1-3.1-3.1s-3.1,1.4-3.1,3.1l0,0
							C267.8,57.8,269.2,59.2,270.9,59.2"/>
					</g>
				</g>
			</g>
		</g>
	</g>
</g>
<g>
	<path class="st7" d="M298.7,102.4V83.7v-0.3l-0.3-0.1l-6.1-2.8c0-0.3,0-0.5,0-0.6c0-0.3,0-0.3,0-0.4c0-1.7-2.6-3-5.9-3
		c-0.6,0-1.4,0-2.1,0.1l-4.3-2.1c0-0.8,0-2.2,0-2.3c0-1.7-2.6-3-5.9-3c-3.5,0-6.1,1.3-6.1,3l-7.5,3.1c-0.3,0-0.4,0-0.6,0h-0.3
		c-3.4,0-5.8,1.2-6.1,2.8c-0.9,0.4-4.7,1.9-7.1,3l-0.3,0.1v0.3l0.1,19.4v0.3l0.3,0.1l24.3,14.6l0.1,0.1l0.3-0.1l27.1-13.2l0.3-0.1
		L298.7,102.4z"/>
	<path class="st11" d="M298.7,102.4V83.7v-0.3l-0.3-0.1l-6.1-2.8c0-0.3,0-0.5,0-0.6c0-0.3,0-0.3,0-0.4c0-1.7-2.6-3-5.9-3
		c-0.6,0-1.4,0-2.1,0.1l-4.3-2.1c0-0.8,0-2.2,0-2.3c0-1.7-2.6-3-5.9-3c-3.5,0-6.1,1.3-6.1,3l-7.5,3.1c-0.3,0-0.4,0-0.6,0h-0.3
		c-3.4,0-5.8,1.2-6.1,2.8c-0.9,0.4-4.7,1.9-7.1,3l-0.3,0.1v0.3l0.1,19.4v0.3l0.3,0.1l24.3,14.6l0.1,0.1l0.3-0.1l27.1-13.2l0.3-0.1
		L298.7,102.4z"/>
</g>
<polygon class="st12" points="246.8,81.6 246.9,101 271.2,115.5 271.3,95.4 "/>
<polygon class="st13" points="271.2,95.4 271.2,115.5 298.3,102.4 298.3,83.7 "/>
<polygon class="st5" points="246.8,81.6 272,71 298.3,83.7 271.2,95.4 "/>
<g>
	<g>
		<defs>
			<path id="SVGID_5_" d="M259.7,81c-4.3,0-5.6-2.5-5.6-2.5c-0.1,0.9,0,3,0,3.5c0,0,1.3,2.6,5.6,2.6c4.7,0,5.7-2.7,5.7-2.7
				c0-0.5,0-1.6-0.1-3.5C263.8,80.1,261.8,81,259.7,81"/>
		</defs>
		<clipPath id="SVGID_6_">
			<use xlink:href="#SVGID_5_"  style="overflow:visible;"/>
		</clipPath>
		<g class="st14">
			<rect x="254" y="78.4" class="st12" width="11.4" height="6.1"/>
		</g>
	</g>
</g>
<g>
	<path class="st5" d="M265.2,78.4c0,1.4-2.5,2.6-5.6,2.6s-5.6-1.2-5.6-2.6c0-1.4,2.5-2.6,5.6-2.6S265.2,77,265.2,78.4"/>
</g>
<g>
	<g>
		<defs>
			<path id="SVGID_7_" d="M274,74.9c-4.3,0-5.6-2.5-5.6-2.5c-0.1,0.9,0,3,0,3.5c0,0,1.3,2.6,5.6,2.6c4.7,0,5.7-2.7,5.7-2.7
				c0-0.5,0-1.6-0.1-3.5C278.3,74,276.1,74.9,274,74.9"/>
		</defs>
		<clipPath id="SVGID_8_">
			<use xlink:href="#SVGID_7_"  style="overflow:visible;"/>
		</clipPath>
		<g class="st15">
			<rect x="268.3" y="72.3" class="st12" width="11.4" height="6.1"/>
		</g>
	</g>
</g>
<g>
	<path class="st5" d="M279.6,72.3c0,1.4-2.5,2.6-5.6,2.6s-5.6-1.2-5.6-2.6c0-1.4,2.5-2.6,5.6-2.6C277.1,69.6,279.6,70.8,279.6,72.3"
		/>
</g>
<g>
	<g>
		<defs>
			<path id="SVGID_9_" d="M271.8,87.9c-4.3,0-5.6-2.5-5.6-2.5c-0.1,0.9,0,3,0,3.5c0,0,1.3,2.6,5.6,2.6c4.7,0,5.7-2.7,5.7-2.7
				c0-0.5,0-1.6-0.1-3.5C276.1,87,274,87.9,271.8,87.9"/>
		</defs>
		<clipPath id="SVGID_10_">
			<use xlink:href="#SVGID_9_"  style="overflow:visible;"/>
		</clipPath>
		<g class="st16">
			<rect x="266.3" y="85.4" class="st12" width="11.4" height="6.1"/>
		</g>
	</g>
</g>
<g>
	<path class="st5" d="M277.5,85.2c0,1.4-2.5,2.6-5.6,2.6s-5.6-1.2-5.6-2.6c0-1.4,2.5-2.6,5.6-2.6C274.9,82.6,277.5,83.8,277.5,85.2"
		/>
</g>
<g>
	<g>
		<defs>
			<path id="SVGID_11_" d="M286.4,82c-4.3,0-5.6-2.5-5.6-2.5c-0.1,0.9,0,3,0,3.5c0,0,1.3,2.6,5.6,2.6c4.7,0,5.7-2.7,5.7-2.7
				c0-0.5,0-1.6-0.1-3.5C290.6,81.2,288.5,82.1,286.4,82"/>
		</defs>
		<clipPath id="SVGID_12_">
			<use xlink:href="#SVGID_11_"  style="overflow:visible;"/>
		</clipPath>
		<g class="st17">
			<rect x="280.8" y="79.5" class="st12" width="11.4" height="6.1"/>
		</g>
	</g>
</g>
<g>
	<path class="st5" d="M292,79.4c0,1.4-2.5,2.6-5.6,2.6c-3.1,0-5.6-1.2-5.6-2.6c0-1.4,2.5-2.6,5.6-2.6C289.5,76.8,292,78,292,79.4"/>
</g>
</svg>
