<?xml version="1.0" encoding="utf-8"?>
<!-- Generator: Adobe Illustrator 20.1.0, SVG Export Plug-In . SVG Version: 6.00 Build 0)  -->
<svg version="1.1" id="Layer_1" xmlns="http://www.w3.org/2000/svg" xmlns:xlink="http://www.w3.org/1999/xlink" x="0px" y="0px"
	 viewBox="0 0 310.5 118" style="enable-background:new 0 0 310.5 118;" xml:space="preserve">
<style type="text/css">
	.st0{fill:#F36C38;}
	.st1{fill:#6CAB43;}
	.st2{fill:#66B1E2;}
	.st3{fill:#FDBC46;}
	.st4{fill:#0076BD;}
	.st5{fill:#D0202F;}
	.st6{fill:#231F20;}
	.st7{fill:#FFFFFF;}
	.st8{clip-path:url(#SVGID_2_);}
	.st9{fill:none;stroke:#231F20;stroke-width:0.455;}
	.st10{clip-path:url(#SVGID_4_);}
</style>
<title>squares-2</title>
<g id="Layer_2">
	<g id="Layer_1-2">
		<rect x="236.8" class="st0" width="34.3" height="32.1"/>
		<rect x="202.7" class="st1" width="34" height="32.1"/>
		<rect x="168.8" class="st2" width="34" height="32.1"/>
		<rect x="134.8" class="st3" width="34" height="32.1"/>
		<rect x="100.8" class="st4" width="34" height="32.1"/>
		<rect x="66.8" class="st5" width="34" height="32.1"/>
		<rect x="32.8" class="st6" width="34" height="32.1"/>
		<rect class="st7" width="32.8" height="32.1"/>
		<g>
			<g>
				<g>
					<g>
						<defs>
							<rect id="SVGID_1_" width="310.5" height="59.2"/>
						</defs>
						<clipPath id="SVGID_2_">
							<use xlink:href="#SVGID_1_"  style="overflow:visible;"/>
						</clipPath>
						<g class="st8">
							<line class="st9" x1="0" y1="32.1" x2="310.5" y2="32.1"/>
						</g>
					</g>
				</g>
			</g>
		</g>
		<line class="st9" x1="271.1" y1="0" x2="271.1" y2="55.5"/>
		<g>
			<g>
				<g>
					<g>
						<defs>
							<rect id="SVGID_3_" width="310.5" height="59.2"/>
						</defs>
						<clipPath id="SVGID_4_">
							<use xlink:href="#SVGID_3_"  style="overflow:visible;"/>
						</clipPath>
						<g class="st10">
							<path class="st6" d="M270.9,59.2c1.7,0,3.1-1.4,3.1-3.1s-1.4-3.1-3.1-3.1s-3.1,1.4-3.1,3.1l0,0
								C267.8,57.8,269.2,59.2,270.9,59.2"/>
						</g>
					</g>
				</g>
			</g>
		</g>
	</g>
</g>
</svg>
